<?xml version="1.0" encoding="utf-8"?>
<!-- Generator: Adobe Illustrator 24.0.2, SVG Export Plug-In . SVG Version: 6.00 Build 0)  -->
<svg version="1.1" id="Capa_1" xmlns="http://www.w3.org/2000/svg" xmlns:xlink="http://www.w3.org/1999/xlink" x="0px" y="0px"
	 viewBox="0 0 868.69 963.94" style="enable-background:new 0 0 868.69 963.94;" xml:space="preserve">
<style type="text/css">
	.st0{fill-rule:evenodd;clip-rule:evenodd;fill:#EDEFEF;stroke:#161A1C;stroke-width:16;stroke-miterlimit:10;}
	.st1{fill-rule:evenodd;clip-rule:evenodd;fill:#161A1C;stroke:#161A1C;stroke-width:0.75;stroke-miterlimit:10;}
	.st2{fill:#EDEFEF;}
	.st3{fill:#006A41;}
</style>
<path class="st0" d="M860.69,303.15l-1.6,361.4c-0.18,40.22-21.8,77.28-56.71,97.24L488.59,941.1c-5.45,3.12-11.09,5.74-16.86,7.87
	c-31.24,11.54-66.38,8.74-95.7-8.36L63.85,758.52C29.11,738.26,7.82,701,8,660.79l1.6-361.4c0.13-31.22,13.19-60.54,35.36-81.43
	c6.39-6.02,13.54-11.34,21.35-15.81L380.09,22.84c34.92-19.96,77.83-19.77,112.56,0.49l312.19,182.09
	C839.58,225.68,860.87,262.94,860.69,303.15z"/>
<path class="st1" d="M508.69,506.15l-1.6,361.4c-0.14,31.22-13.2,60.53-35.36,81.42c-31.24,11.54-66.38,8.74-95.7-8.36L63.85,758.52
	C29.11,738.26,7.82,701,8,660.79l1.6-361.4c0.13-31.22,13.19-60.54,35.36-81.43c31.25-11.53,66.38-8.73,95.69,8.37l312.19,182.09
	C487.58,428.68,508.87,465.94,508.69,506.15z"/>
<g>
	<path class="st2" d="M48.03,690.23l2.16-216.75l120.92,69.36l-0.27,37.61l-82.17-46.76l-0.57,63.38l67.4,37.85l-0.28,37.85
		l-67.47-37.58l-0.69,76.44L48.03,690.23z"/>
	<path class="st3" d="M160.4,741.42l109.7,56.92l-3.19,25.6l-109.83-56.6L160.4,741.42z"/>
	<path class="st2" d="M434.04,893.89c-18.16-5.26-34.6-11.91-49.28-19.95c-14.74-8.07-26.56-16.71-35.44-25.9
		c-8.9-9.21-15.89-19.96-20.95-32.24c-5.07-12.29-8.55-25.36-10.44-39.21c-1.9-13.85-2.82-30.45-2.77-49.79
		c0.11-40.48,5.05-65.87,14.8-76.2c9.71-10.3,27.49-8.02,53.24,6.76c14.79,8.49,31.82,21,51.1,37.51l-1.02,32.79
		c-16.89-12.65-30.99-22.2-42.24-28.61c-11.29-6.43-19.37-9.24-24.21-8.43c-4.86,0.81-8.47,5.56-10.83,14.24
		c-2.36,8.69-3.57,25.11-3.62,49.27c-0.05,24.19,2.31,42.3,7.08,54.29c4.76,11.99,14.3,21.92,28.58,29.81
		c14.23,7.86,29.31,14.76,45.23,20.7L434.04,893.89z"/>
</g>
</svg>
