<?xml version="1.0" standalone="no"?>
<!DOCTYPE svg PUBLIC "-//W3C//DTD SVG 20010904//EN"
 "http://www.w3.org/TR/2001/REC-SVG-20010904/DTD/svg10.dtd">
<svg version="1.0" xmlns="http://www.w3.org/2000/svg"
 width="964.000000pt" height="964.000000pt" viewBox="0 0 964.000000 964.000000"
 preserveAspectRatio="xMidYMid meet">
<metadata>
Created by potrace 1.14, written by Peter Selinger 2001-2017
</metadata>
<g transform="translate(0.000000,964.000000) scale(0.100000,-0.100000)"
fill="#000000" stroke="none">
<path d="M4719 9635 c-2 -2 -24 -6 -49 -8 -25 -3 -56 -8 -70 -12 -14 -3 -45
-11 -70 -17 -61 -15 -224 -79 -228 -89 -2 -5 -9 -9 -15 -9 -7 0 -48 -21 -92
-46 -44 -25 -98 -56 -120 -69 -22 -12 -80 -46 -130 -75 -49 -29 -112 -64 -140
-79 -27 -14 -51 -29 -53 -33 -2 -5 -8 -8 -13 -8 -5 0 -44 -21 -87 -46 -42 -25
-84 -49 -92 -53 -8 -4 -60 -34 -115 -66 -55 -32 -125 -71 -155 -88 -30 -17
-67 -38 -82 -49 -14 -10 -28 -18 -31 -18 -3 0 -40 -20 -81 -45 -42 -25 -79
-45 -81 -45 -3 0 -34 -18 -70 -40 -36 -22 -70 -40 -75 -40 -6 0 -10 -4 -10
-10 0 -5 -5 -10 -11 -10 -6 0 -65 -31 -131 -70 -66 -38 -125 -70 -129 -70 -5
0 -9 -4 -9 -10 0 -5 -4 -10 -9 -10 -7 0 -114 -58 -193 -105 -9 -5 -41 -23 -70
-39 -29 -16 -65 -37 -80 -47 -14 -11 -29 -19 -32 -19 -3 0 -40 -20 -82 -45
-41 -25 -80 -45 -85 -45 -5 0 -9 -4 -9 -10 0 -5 -5 -10 -11 -10 -6 0 -49 -22
-96 -50 -47 -27 -87 -50 -89 -50 -3 0 -29 -16 -59 -35 -30 -19 -55 -31 -55
-27 0 4 -4 2 -8 -4 -4 -5 -78 -50 -165 -100 -86 -49 -179 -101 -205 -117 -26
-15 -54 -30 -62 -34 -42 -19 -271 -161 -310 -192 -88 -70 -218 -208 -245 -260
-8 -17 -19 -31 -23 -31 -4 0 -12 -10 -17 -23 -6 -12 -24 -47 -39 -77 -16 -30
-34 -66 -41 -80 -14 -28 -63 -175 -69 -206 -7 -38 -19 -110 -23 -139 -12 -96
-22 -3871 -10 -3930 5 -22 11 -53 14 -70 9 -55 55 -189 84 -247 15 -32 25 -58
21 -58 -4 0 -2 -4 3 -8 6 -4 24 -29 40 -57 15 -27 42 -68 59 -90 17 -22 35
-46 41 -53 16 -22 128 -135 161 -163 57 -49 219 -153 256 -166 10 -3 18 -9 18
-14 0 -5 4 -9 9 -9 6 0 47 -22 93 -50 46 -27 88 -50 95 -50 6 0 13 -3 15 -8 4
-9 386 -232 399 -232 5 0 9 -4 9 -10 0 -5 7 -10 15 -10 8 0 15 -4 15 -10 0 -5
5 -10 11 -10 6 0 48 -22 95 -50 47 -27 87 -50 90 -50 3 0 10 -5 17 -10 19 -17
629 -370 638 -370 5 0 9 -4 9 -10 0 -5 4 -10 9 -10 5 0 151 -83 325 -185 174
-102 321 -185 326 -185 6 0 10 -4 10 -8 0 -4 15 -15 33 -23 17 -9 94 -52 170
-97 76 -45 142 -82 147 -82 6 0 10 -3 10 -7 0 -5 10 -13 23 -19 12 -6 90 -50
172 -99 83 -48 170 -99 195 -113 25 -14 61 -35 80 -47 67 -42 244 -114 325
-131 109 -24 185 -31 304 -29 167 4 219 12 356 57 89 28 239 99 297 139 14 11
31 19 37 19 6 0 11 5 11 10 0 6 9 10 20 10 11 0 20 4 20 9 0 5 12 14 28 20 15
6 41 20 57 30 17 11 52 32 79 46 79 43 89 49 104 62 7 7 18 13 24 13 5 0 30
14 55 30 24 17 47 30 52 30 4 0 27 13 52 28 24 16 69 42 99 58 30 17 120 68
200 114 80 46 170 97 200 113 30 16 62 35 70 42 8 7 25 16 38 19 12 4 22 12
22 17 0 5 9 9 19 9 11 0 21 4 23 8 2 4 26 21 53 36 94 53 135 76 178 100 24
13 62 36 85 50 23 14 44 26 46 26 3 0 46 25 97 55 50 30 93 55 95 55 2 0 27
14 56 31 29 18 72 42 96 55 23 13 61 35 85 48 23 13 85 48 137 78 236 136 338
195 425 242 11 6 22 14 25 17 3 3 31 18 63 34 31 16 57 33 57 37 0 4 9 8 20 8
11 0 20 5 20 10 0 6 5 10 11 10 6 0 23 8 37 18 15 11 57 35 94 56 164 89 308
179 316 199 2 4 8 7 14 7 21 0 185 178 245 266 34 50 60 94 57 96 -2 3 2 11
11 18 8 7 15 16 15 21 0 5 11 32 24 61 23 52 55 143 61 176 2 9 4 17 5 17 1 0
4 14 6 30 8 46 12 70 14 70 8 0 13 204 14 542 1 261 5 403 11 403 7 0 7 3 0 8
-12 8 -14 192 -2 192 5 0 5 5 1 12 -6 10 -9 182 -3 198 1 3 1 9 -1 15 -4 23
-5 93 0 90 8 -5 5 2496 -3 2525 -3 14 -9 41 -13 60 -19 107 -140 400 -165 400
-5 0 -9 5 -9 11 0 18 -98 139 -169 208 -73 71 -141 123 -216 166 -27 16 -52
32 -55 35 -3 4 -18 14 -35 22 -61 32 -101 55 -140 79 -22 14 -52 32 -67 40
-25 14 -124 70 -219 127 -26 15 -132 76 -235 137 -104 60 -190 113 -192 117
-2 4 -10 8 -18 8 -8 0 -27 9 -42 19 -44 31 -233 141 -243 141 -5 0 -9 5 -9 12
0 6 -3 9 -6 6 -5 -5 -48 19 -89 49 -6 5 -33 19 -60 33 -28 14 -51 28 -53 33
-2 4 -7 7 -11 7 -5 0 -53 27 -109 60 -55 33 -105 60 -111 60 -6 0 -11 4 -11 9
0 5 -8 11 -17 14 -18 6 -73 37 -83 47 -3 3 -25 16 -50 29 -25 14 -47 27 -50
30 -3 3 -23 15 -45 27 -22 11 -91 51 -153 87 -62 37 -132 78 -155 91 -73 41
-122 70 -127 76 -3 3 -21 13 -40 22 -40 20 -113 62 -150 87 -14 9 -42 26 -62
36 -21 11 -38 23 -38 27 0 5 -9 8 -19 8 -11 0 -22 4 -26 9 -3 5 -55 38 -116
73 -60 35 -131 76 -157 91 -26 15 -54 30 -62 34 -8 3 -22 12 -30 19 -23 20
-212 112 -246 120 -16 4 -34 10 -39 15 -6 4 -24 10 -40 13 -17 2 -30 5 -30 6
0 2 -16 5 -60 14 -16 3 -41 8 -55 12 -29 6 -306 15 -311 9z"/>
</g>
</svg>
