<?xml version="1.0" encoding="utf-8"?>
<!-- Generator: Adobe Illustrator 24.0.2, SVG Export Plug-In . SVG Version: 6.00 Build 0)  -->
<svg version="1.1" id="Capa_1" xmlns="http://www.w3.org/2000/svg" xmlns:xlink="http://www.w3.org/1999/xlink" x="0px" y="0px"
	 viewBox="0 0 2499 2492" style="enable-background:new 0 0 2499 2492;" xml:space="preserve">
<style type="text/css">
	.st0{fill:#E24329;}
	.st1{fill:#FCA326;}
	.st2{fill:#FC6D26;}
</style>
<polygon class="st0" points="1249.27,2466.98 1249.27,2467 1249.25,2466.98 1249.25,2466.96 "/>
<polygon class="st1" points="1249.27,2466.99 1249.27,2467 1249.26,2466.99 "/>
<path class="st2" d="M1249.14,13.75C568.8,13.75,17.28,565.27,17.28,1245.61S568.8,2477.47,1249.14,2477.47
	S2481,1925.95,2481,1245.61S1929.48,13.75,1249.14,13.75z M2309.44,1624.96L1249,2446.89v-0.02l-0.02-0.02v0.02L188.55,1624.96
	c-29.26-22.68-41.5-62.87-30.31-99.55l122.51-402.28v-0.01l242.84-797.29c12.49-41.01,66.89-41.02,79.4,0l242.83,797.29v0.01h806.38
	v-0.01l242.84-797.29c12.49-41.02,66.9-41.01,79.39,0l242.84,797.29v0.01l122.52,402.28
	C2350.94,1562.09,2338.7,1602.29,2309.44,1624.96z"/>
<polygon class="st2" points="1249.27,2466.98 1249.27,2466.99 1249.26,2466.99 "/>
</svg>
